<svg width="512" height="512" viewBox="0 0 512 512" fill="none" xmlns="http://www.w3.org/2000/svg">
    <rect width="512" height="512" fill="#005F73"/>
    
    <g transform="translate(256 256)">
        <g transform="translate(-180 -230)">
            
            <rect x="20" y="20" width="360" height="460" rx="24" fill="#003845" opacity="0.4"/>
            
            <rect x="0" y="0" width="360" height="460" rx="24" fill="#FFFFFF"/>
            
            <rect x="40" y="60" width="140" height="24" rx="12" fill="#CFD8DC"/>
            <rect x="240" y="60" width="80" height="24" rx="12" fill="#ECEFF1"/>
            
            <rect x="40" y="120" width="280" height="20" rx="10" fill="#F5F7F8"/>
            <rect x="40" y="160" width="280" height="20" rx="10" fill="#F5F7F8"/>
            <rect x="40" y="200" width="200" height="20" rx="10" fill="#F5F7F8"/>
            <rect x="40" y="240" width="240" height="20" rx="10" fill="#F5F7F8"/>
            
             <rect x="40" y="380" width="100" height="30" rx="15" fill="#CFD8DC"/>
             <rect x="220" y="380" width="100" height="30" rx="15" fill="#B0BEC5"/>

            <text x="180" y="320" 
                  font-family="Arial Black, Arial, sans-serif" 
                  font-weight="900" 
                  font-size="160" 
                  fill="#FF8C00" 
                  text-anchor="middle" 
                  dominant-baseline="middle" 
                  style="filter: drop-shadow(3px 3px 0px #003845); letter-spacing: -4px;">
                MRR
            </text>
        </g>
    </g>
</svg>